<svg xmlns="http://www.w3.org/2000/svg" viewBox="0 0 32.37 36.09"><defs><style>.cls-1{isolation:isolate;}.cls-2{mix-blend-mode:multiply;}.cls-3{fill:#aa8d7a;}.cls-4{fill:#5a3831;}</style></defs><title>アセット 1</title><g class="cls-1"><g id="レイヤー_2" data-name="レイヤー 2"><g id="レイヤー_1-2" data-name="レイヤー 1"><g class="cls-2"><polygon class="cls-3" points="3.22 12.22 3.22 31.01 0.04 31.01 0.04 8 31.82 8 31.82 31.01 28.64 31.01 28.64 12.22 3.22 12.22"/><rect class="cls-3" x="8.71" y="14.25" width="3.14" height="16.76"/><polygon class="cls-3" points="12.05 13.6 12.39 12.95 8.12 12.95 8.49 13.6 12.05 13.6"/><rect class="cls-3" x="19.83" y="14.25" width="3.14" height="16.76"/><polygon class="cls-3" points="19.63 13.6 19.29 12.95 23.57 12.95 23.19 13.6 19.63 13.6"/><rect class="cls-4" x="0.06" y="6.57" width="31.75" height="0.63"/><polygon class="cls-4" points="0 5.58 31.81 5.58 15.91 0 0 5.58"/><path class="cls-4" d="M17,19.19,16.9,15l-.74-.05-.58,3.64c-.74.22-.8.32-1.48-.1s-1.53-2.54-1.48-3.8H11.51c.11,1.53.32,3.85,1.43,4.54a10.05,10.05,0,0,0,2,.95V21.3c-1-.05-3.38.12-4-1.21a12.64,12.64,0,0,1-.79-3.59l-1-.06a9.94,9.94,0,0,0,.8,4.33,6.7,6.7,0,0,0,4.69,2.43l.11.85a5.76,5.76,0,0,1-4.06-.8c-1.33-.95-3.49-2.58-4.23-4.75A9.53,9.53,0,0,1,5.55,15l-1.32-.05C4.76,17.66,5,18.82,5.71,20a8.33,8.33,0,0,0,2.21,2.53c1.06.9,2.7,2.33,4,2.59a16.06,16.06,0,0,0,2.75.26L14.77,31h2.38V26a17.85,17.85,0,0,0,3.34-.21c.94-.27,3.9-2,4.69-4.23a17.63,17.63,0,0,0,.95-6.28H25c-.21,1.85-.31,4.17-1,5.28s-1.22,2.69-3.07,3.49a6.14,6.14,0,0,1-3.64.31l-.1-.16V22.73A6.5,6.5,0,0,0,21,20.93a5.8,5.8,0,0,0,1.42-4.06l-.95-.06c-.2,1.11-.58,2.85-1.89,3.65a4.28,4.28,0,0,1-2.49.79V20.14c2-.79,2.71-3.18,2.64-4.86l-1,.06c0,2.32-.74,3.27-1.69,3.85Z"/><rect class="cls-4" x="0.96" y="32.27" width="3.17" height="3.17" transform="translate(-23.19 11.71) rotate(-44.99)"/><rect class="cls-4" x="6.48" y="32.27" width="3.17" height="3.17" transform="translate(-21.57 15.6) rotate(-44.98)"/><rect class="cls-4" x="11.99" y="32.27" width="3.17" height="3.17" transform="translate(-19.97 19.53) rotate(-45.03)"/><rect class="cls-4" x="17.51" y="32.27" width="3.17" height="3.17" transform="translate(-18.35 23.43) rotate(-45.02)"/><rect class="cls-4" x="23.03" y="32.27" width="3.17" height="3.17" transform="translate(-16.73 27.32) rotate(-45.01)"/><rect class="cls-4" x="28.54" y="32.27" width="3.17" height="3.17" transform="translate(-15.11 31.2) rotate(-44.98)"/></g></g></g></g></svg>